<?xml version="1.0" encoding="UTF-8"?>
<svg xmlns="http://www.w3.org/2000/svg" version="1.1" viewBox="0 0 65.6 59.9">
  <defs>
    <style>
      .cls-1 {
        fill: #fff;
      }

      .cls-2 {
        fill: #1d1d1b;
      }
    </style>
  </defs>
  <!-- Generator: Adobe Illustrator 28.6.0, SVG Export Plug-In . SVG Version: 1.2.0 Build 709)  -->
  <g>
    <g id="Laag_1">
      <g>
        <path class="cls-1" d="M32.8,58.9c-.5,0-1-.3-1.6-.8C20.4,48.8,9.4,38.5,3,24.9.6,19.6.3,14.2,2.4,9.8,4.2,5.8,7.8,2.9,12.5,1.6c.9-.2,1.8-.4,2.5-.5.3,0,.5,0,.7-.1,5.3.2,9.5,2.1,12.7,6,.3.4.6.8,1,1.3,1.1,1.5,2,2.8,3.5,2.8,1.3,0,2.1-1.2,3.1-2.5.3-.4.7-.9,1-1.3,3.7-4.2,8-6.4,12.4-6.4s5.5.8,8.1,2.5c7,4.4,9.1,12.3,5.4,20.6-6.1,13.9-17,24.1-28.5,34.1-.5.5-1,.7-1.5.7Z"/>
        <path class="cls-2" d="M49.3,2h0c2.5,0,5.1.8,7.5,2.3,6.5,4.1,8.5,11.5,5,19.3-6,13.7-16.8,23.8-28.2,33.8-.2.2-.6.4-.8.4s-.6-.2-1-.5C21.2,48.1,10.3,37.9,3.9,24.5c-2.4-5-2.6-10.1-.7-14.2,1.7-3.7,5.1-6.4,9.5-7.6.8-.2,1.7-.4,2.4-.5.2,0,.4,0,.6,0,5.1.2,8.8,2,11.8,5.7.3.4.6.8.9,1.2,1.2,1.6,2.3,3.3,4.3,3.3h0s0,0,0,0c1.7,0,2.7-1.4,3.9-2.9.3-.4.7-.9,1-1.2,3.5-4,7.5-6,11.7-6M49.3,0c-4.6,0-9.2,2.2-13.2,6.7-1.3,1.5-2.4,3.4-3.4,3.5,0,0,0,0,0,0-1.2,0-2.3-2.2-3.6-3.8C25.8,2.4,21.5.2,15.6,0c-.8.1-2.1.3-3.4.6C1.5,3.6-3,14.3,2.1,25.3c6.4,13.7,17.2,23.8,28.4,33.6.8.7,1.5,1,2.3,1s1.4-.3,2.2-.9c11.4-10,22.5-20.3,28.8-34.5,3.9-8.9,1.5-17.2-5.8-21.8C55.1.9,52.2,0,49.3,0h0Z"/>
      </g>
    </g>
  </g>
</svg>